<?xml version="1.0" encoding="utf-8"?>
<!-- Generator: Adobe Illustrator 16.0.0, SVG Export Plug-In . SVG Version: 6.00 Build 0)  -->
<!DOCTYPE svg PUBLIC "-//W3C//DTD SVG 1.1//EN" "http://www.w3.org/Graphics/SVG/1.1/DTD/svg11.dtd">
<svg version="1.1" id="Livello_1" xmlns="http://www.w3.org/2000/svg" xmlns:xlink="http://www.w3.org/1999/xlink" x="0px" y="0px"
	 width="70px" height="70px" viewBox="0 0 70 70" enable-background="new 0 0 70 70" xml:space="preserve">
<rect x="0.44" y="-0.125" width="70" height="70"/>
<g>
	<g>
		<path fill="#FFFFFF" d="M54.827-28.17H24.562c-1.475,0-2.671,1.196-2.671,2.67c0,1.476,1.197,2.671,2.671,2.671h30.266
			c1.476,0,2.672-1.195,2.672-2.671C57.499-26.974,56.303-28.17,54.827-28.17z M54.827-17.488H24.562
			c-1.475,0-2.671,1.195-2.671,2.671c0,1.478,1.197,2.672,2.671,2.672h30.266c1.476,0,2.672-1.194,2.672-2.672
			C57.499-16.293,56.303-17.488,54.827-17.488z M24.562-33.512h30.266c1.476,0,2.671-1.195,2.671-2.67s-1.195-2.67-2.671-2.67
			H24.562c-1.476,0-2.67,1.195-2.67,2.67S23.086-33.512,24.562-33.512z"/>
	</g>
</g>
<rect x="16.32" y="20.625" fill="#FFFFFF" width="38.239" height="4"/>
<rect x="16.32" y="32.875" fill="#FFFFFF" width="38.239" height="4"/>
<rect x="16.32" y="45.125" fill="#FFFFFF" width="38.239" height="4"/>
</svg>
